<svg width="201" height="219" viewBox="0 0 201 219" fill="none" xmlns="http://www.w3.org/2000/svg">
<g id="freepik--Characters--inject-88">
<path id="Vector" d="M72.0803 117.244C72.0803 117.244 61.0784 115.519 60.1611 115.551C59.2438 115.584 50.5187 117.293 50.5187 117.293C50.5187 117.293 38.1737 119.477 36.9288 120.372C35.6839 121.268 36.6012 124.08 36.6012 124.08C37.9716 124.626 42.2905 123.769 42.2905 123.769C42.3379 124.723 42.5951 125.655 43.044 126.499C43.8193 128.06 45.9378 127.667 45.9378 127.667L44.2998 128.519C44.4383 129.508 44.6874 130.479 45.0423 131.413C45.643 133.051 49.5796 132.816 49.5796 132.816C49.5796 132.816 50.617 135.153 52.2495 135.546C53.8821 135.939 62.3778 133.946 64.9004 133.673C67.4229 133.4 72.2605 130.397 72.2605 130.397C74.2066 131.088 76.1876 131.677 78.1955 132.161L79.4349 116.13C78.5067 116.07 72.0803 117.244 72.0803 117.244Z" fill="#455A64"/>
<path id="Vector_2" d="M27.9798 168.087C23.2897 166.908 19.7407 162.808 18.1518 158.259C16.563 153.711 16.6012 148.721 17.0598 143.911C17.238 143.022 17.1642 142.101 16.8469 141.252C16.219 139.963 14.4936 139.515 13.1232 139.941C11.7527 140.367 10.6989 141.448 9.84716 142.578C7.42581 145.708 5.96468 149.472 5.64102 153.416C5.31737 157.359 6.14512 161.312 8.02383 164.794C9.90254 168.277 12.7515 171.139 16.225 173.034C19.6985 174.929 23.6472 175.775 27.5922 175.469" fill="#EDA61A"/>
<path id="Vector_3" d="M63.5354 122.824C63.5354 122.824 74.5264 141.863 77.3055 149.518C80.0847 157.173 83.6227 178.221 83.6227 178.221C83.6227 178.221 100.123 182.469 89.9017 200.214C86.1234 206.766 86.4619 209.813 82.225 210.009C78.949 210.157 52.3479 209.955 52.3479 209.955L52.8283 212.559C52.8283 212.559 50.6007 220.083 46.1016 217.959C41.6026 215.835 36.2736 209.955 36.2736 209.955L28.5368 209.851L10.1202 209.982L4.7312 209.878V209.731C4.9148 208.267 5.51824 206.887 6.46869 205.758C7.41914 204.63 8.67597 203.8 10.0875 203.37L14.0405 202.169C14.0405 202.169 8.90264 180.591 13.3525 175.415C17.8024 170.239 25.0424 170.594 25.0424 170.594L21.7173 148.388C21.0565 143.182 21.581 137.894 23.2515 132.92L25.7467 125.499L63.5354 122.824Z" fill="#EDA61A"/>
<path id="Vector_4" d="M25.3426 171.336C32.9866 175.666 38.1081 182.922 40.6689 191.211C40.6689 191.298 40.8272 191.26 40.7999 191.178C38.8179 184.751 35.2962 178.8 30.1038 174.454C28.6394 173.238 27.0699 172.154 25.4136 171.216C25.3372 171.172 25.2662 171.292 25.3426 171.336Z" fill="#263238"/>
<path id="Vector_5" d="M25.5067 126.258C25.5067 126.258 21.9194 135.841 21.6191 140.629C21.1223 148.573 25.0589 170.583 25.0589 170.583C25.0589 170.583 23.7103 192.155 22.5419 195.355C21.3734 198.554 21.8594 201.503 16.5359 202.589C15.0999 202.884 12.5938 207.541 12.5938 209.851H27.4832C27.4832 209.851 31.5127 205.297 31.7038 201.039C31.8949 196.78 38.9819 173.64 38.9819 173.64" fill="#EDA61A"/>
<path id="Vector_6" d="M38.9817 173.64C38.9817 173.64 38.9817 173.7 38.9381 173.815C38.8944 173.93 38.8562 174.11 38.7906 174.328C38.6596 174.781 38.4685 175.448 38.2173 176.305C37.7096 178.052 36.9779 180.591 36.0333 183.812C35.0888 187.034 34.0077 190.965 32.8938 195.486C32.6154 196.616 32.3478 197.784 32.1076 198.996C32.053 199.299 31.9984 199.604 31.9438 199.914C31.8892 200.22 31.8674 200.531 31.8291 200.842L31.7309 201.803C31.6763 202.125 31.6217 202.447 31.5398 202.769C30.745 205.415 29.3893 207.858 27.5649 209.933L27.5321 209.977H27.4721H12.5826H12.4407V209.84C12.5737 208.394 13.007 206.992 13.7129 205.723C14.0455 205.064 14.4308 204.432 14.8649 203.834C15.0884 203.532 15.3368 203.249 15.6075 202.988C15.8845 202.703 16.2366 202.502 16.623 202.409C18.0426 202.098 19.5223 201.568 20.445 200.411C21.3678 199.253 21.6353 197.681 22.083 196.206C22.1595 195.928 22.2578 195.66 22.3506 195.382C22.4434 195.104 22.498 194.836 22.5744 194.574C22.6836 194.028 22.8038 193.482 22.8802 192.936C23.0549 191.844 23.1914 190.708 23.317 189.6C23.5736 187.383 23.7702 185.194 23.9613 183.048C24.3326 178.734 24.6383 174.568 24.9004 170.594V170.626C23.7702 164.107 22.8693 158.068 22.2305 152.608C21.9138 149.878 21.6845 147.329 21.5425 144.964C21.3578 142.777 21.4514 140.576 21.821 138.412C22.1977 136.452 22.6836 134.727 23.1204 133.231C23.5572 131.735 23.9831 130.473 24.3326 129.447C24.682 128.421 24.9714 127.645 25.1625 127.116L25.3918 126.52C25.4464 126.384 25.4792 126.318 25.4792 126.318L25.4136 126.526C25.3645 126.673 25.2935 126.87 25.2062 127.132C25.026 127.678 24.7584 128.459 24.4145 129.474C24.0705 130.49 23.6774 131.773 23.246 133.269C22.8147 134.765 22.3451 136.49 21.9793 138.445C21.6221 140.61 21.5413 142.812 21.7391 144.997C21.8701 147.378 22.1267 149.911 22.4543 152.641C23.1041 158.068 24.0213 164.107 25.1843 170.659V170.692C24.9277 174.672 24.6383 178.838 24.2616 183.152C24.0759 185.308 23.8739 187.52 23.6228 189.704C23.4917 190.796 23.3552 191.931 23.1805 193.051C23.1041 193.597 22.9839 194.17 22.8747 194.732C22.7928 195.011 22.7219 195.278 22.64 195.573C22.5581 195.868 22.4543 196.119 22.3779 196.381C22.1595 197.118 21.9848 197.866 21.75 198.609C21.5313 199.358 21.1738 200.06 20.6962 200.678C20.1937 201.274 19.5653 201.752 18.8562 202.076C18.1579 202.394 17.425 202.631 16.6722 202.78C16.3341 202.86 16.0266 203.036 15.7877 203.288C15.5283 203.537 15.2909 203.807 15.0779 204.096C14.6536 204.68 14.2774 205.297 13.9531 205.942C13.2648 207.171 12.839 208.53 12.7028 209.933L12.5663 209.796H27.4557L27.3629 209.835C29.1653 207.792 30.5078 205.387 31.2995 202.78C31.376 202.469 31.436 202.152 31.4906 201.841L31.5889 200.897C31.6271 200.58 31.6544 200.258 31.7036 199.947C31.7527 199.635 31.8182 199.33 31.8783 199.024C32.1185 197.812 32.397 196.638 32.6754 195.508C33.8057 190.981 34.9413 187.072 35.875 183.84C36.8087 180.607 37.584 178.085 38.1136 176.354C38.3811 175.502 38.5831 174.841 38.7251 174.383L38.8889 173.88C38.9126 173.798 38.9437 173.717 38.9817 173.64Z" fill="#263238"/>
<path id="Vector_7" d="M65.0533 136.217C65.0533 136.217 65.108 136.332 65.2008 136.567L65.5939 137.615C65.9379 138.543 66.4347 139.903 67.079 141.65C68.3512 145.161 70.1912 150.239 72.3261 156.567C72.8721 158.15 73.4181 159.81 73.9368 161.557C74.2098 162.425 74.4828 163.321 74.7176 164.238C74.9402 165.181 75.1061 166.136 75.2144 167.099C75.6894 171.003 75.9133 175.196 76.1644 179.603C76.4156 184.009 76.6231 188.639 76.9452 193.427C77.1145 195.819 77.2892 198.259 77.6277 200.705C77.7151 201.317 77.8134 201.934 77.9499 202.535C78.0166 202.839 78.1042 203.138 78.212 203.43C78.2609 203.565 78.3269 203.694 78.4085 203.812C78.4467 203.856 78.4904 203.91 78.5286 203.921C78.5944 203.951 78.6619 203.976 78.7306 203.998C79.3522 204.179 79.9403 204.459 80.4724 204.828C80.7395 205.015 80.9882 205.227 81.215 205.461C81.4373 205.704 81.6331 205.969 81.7992 206.253C82.4343 207.42 82.6282 208.777 82.3452 210.075V210.184H82.2305H65.583H65.441V210.048C65.5063 208.657 65.7168 207.277 66.0689 205.931C66.3856 204.604 66.7459 203.31 67.1609 202.043V202.098C66.1563 195.546 65.2062 189.48 64.3163 184.08C63.8631 181.383 63.4426 178.844 62.9731 176.507C62.9076 176.217 62.8584 175.923 62.782 175.644L62.6728 175.229C62.6266 175.097 62.57 174.97 62.5035 174.847C62.233 174.362 61.9206 173.902 61.5699 173.471C60.9038 172.608 60.2103 171.833 59.5551 171.074C56.8961 168.104 54.6794 165.86 53.1724 164.315L51.4361 162.551L50.9938 162.098C50.8901 161.994 50.8464 161.939 50.8464 161.939L51.0048 162.081L51.4689 162.518C51.8729 162.922 52.4608 163.501 53.2325 164.254C54.7558 165.783 56.9944 168.011 59.6753 170.965C60.3359 171.713 61.0348 172.494 61.7118 173.367C62.0736 173.804 62.3935 174.274 62.6673 174.77C62.7412 174.899 62.8033 175.035 62.853 175.174L62.9622 175.6C63.0441 175.884 63.0932 176.174 63.1587 176.469C63.6447 178.811 64.0706 181.344 64.5292 184.047C65.441 189.447 66.4074 195.513 67.4175 202.065V202.125C67.0299 203.386 66.6695 204.675 66.3583 205.996C66.0157 207.324 65.809 208.683 65.7413 210.053L65.6048 209.916L82.2523 209.884L82.1104 209.993C82.3659 208.767 82.1722 207.49 81.5644 206.395C81.4066 206.13 81.2237 205.882 81.0184 205.652C80.8035 205.435 80.5696 205.238 80.3195 205.063C79.8197 204.712 79.2666 204.445 78.6815 204.271C78.5999 204.244 78.5197 204.213 78.4413 204.178C78.3472 204.134 78.2676 204.064 78.212 203.976C78.1116 203.839 78.0324 203.688 77.9772 203.528C77.8637 203.23 77.7725 202.923 77.7042 202.611C77.5622 201.994 77.4639 201.377 77.3766 200.76C77.0381 198.292 76.8633 195.846 76.6941 193.455C76.3774 188.661 76.1481 184.031 75.9297 179.624C75.7113 175.218 75.471 171.03 75.0124 167.137C74.9055 166.184 74.7432 165.238 74.5265 164.304C74.2826 163.39 74.0259 162.498 73.7566 161.628C73.2106 159.886 72.6646 158.227 72.1623 156.643C70.0547 150.31 68.242 145.221 67.0026 141.699C66.3801 139.947 65.9106 138.582 65.5666 137.642C65.4082 137.189 65.2827 136.834 65.2008 136.589C65.1189 136.343 65.0533 136.217 65.0533 136.217Z" fill="#263238"/>
<path id="Vector_8" d="M50.5134 186.504C50.4045 186.435 50.3021 186.357 50.2076 186.269L49.3723 185.559C48.6625 184.926 47.6578 183.976 46.4948 182.731C43.4876 179.463 40.7022 175.997 38.1574 172.357C35.5752 168.748 33.2403 164.968 31.1686 161.044C30.3878 159.526 29.8309 158.265 29.476 157.38C29.3231 156.954 29.1976 156.616 29.0993 156.354C29.0504 156.236 29.012 156.113 28.9846 155.988C29.0529 156.096 29.1097 156.212 29.1539 156.332L29.5798 157.337C29.9674 158.205 30.5462 159.45 31.3488 160.951C33.4671 164.838 35.8192 168.592 38.3922 172.193C40.9324 175.813 43.6873 179.277 46.6423 182.567C47.7834 183.829 48.7607 184.795 49.4487 185.45L50.2459 186.198C50.3439 186.292 50.4335 186.394 50.5134 186.504Z" fill="#263238"/>
<path id="Vector_9" d="M41.357 184.413C42.3665 187.639 43.0344 190.962 43.3499 194.328C43.3596 194.687 43.5065 195.029 43.7604 195.283C44.0144 195.537 44.356 195.684 44.7149 195.693C45.0765 195.692 45.4229 195.547 45.6786 195.292C45.9342 195.036 46.0785 194.69 46.0799 194.328C45.7584 190.717 45.0574 187.151 43.9888 183.687C43.8925 183.338 43.6615 183.041 43.3466 182.863C43.0317 182.684 42.6588 182.638 42.3098 182.734C41.9608 182.83 41.6644 183.061 41.4857 183.376C41.307 183.691 41.2607 184.064 41.357 184.413Z" fill="#EDA61A"/>
<path id="Vector_10" d="M25.5939 128.453C25.1298 116.774 24.289 103.141 25.5611 98.6963C26.8333 94.2518 35.7713 85.4722 40.9092 83.4083C46.0471 81.3444 54.5592 84.0853 57.1254 86.3621L73.2979 82.4746C73.2979 82.4746 76.4702 89.8292 72.5608 95.726C68.6515 101.623 57.1199 101.557 57.1199 101.557C57.1199 101.557 56.088 107.973 61.0184 108.535C65.9487 109.098 72.5117 108.328 73.1396 113.689L63.0113 114.596L63.5573 123.528L44.2835 133.771L26.2382 128.562" fill="#EDA61A"/>
<path id="Vector_11" d="M39.4458 90.5227C39.5038 90.6788 39.5387 90.8425 39.5496 91.0086L39.7516 92.4173C39.9154 93.7113 40.1338 95.464 40.4068 97.5988C40.6798 99.7337 40.9528 102.42 41.3077 105.297C41.5126 106.818 41.633 108.35 41.6681 109.884C41.7277 111.56 41.4511 113.231 40.8545 114.798C40.2082 116.39 38.972 117.671 37.4038 118.374C35.9382 118.979 34.3228 119.122 32.7737 118.784C31.3791 118.496 30.0819 117.855 29.0063 116.922C28.0978 116.097 27.3564 115.105 26.8223 114.001C26.0459 112.411 25.6301 110.67 25.6047 108.901C25.5906 108.425 25.6071 107.949 25.6539 107.476C25.6588 107.309 25.6882 107.143 25.7412 106.985C25.7849 106.985 25.7139 107.667 25.7904 108.89C25.8908 110.615 26.3462 112.301 27.1281 113.842C27.6742 114.897 28.4153 115.838 29.3121 116.616C30.3453 117.489 31.5835 118.084 32.9102 118.347C34.374 118.658 35.8979 118.515 37.2782 117.937C38.733 117.281 39.8775 116.088 40.4723 114.607C41.0413 113.101 41.3085 111.498 41.2586 109.889C41.2273 108.372 41.1179 106.858 40.931 105.352C40.6307 102.464 40.3577 99.8538 40.1283 97.637C39.899 95.4203 39.7571 93.7332 39.6315 92.4337C39.5878 91.8877 39.5496 91.3963 39.5168 91.0195C39.4738 90.8573 39.4499 90.6905 39.4458 90.5227Z" fill="#263238"/>
<path id="Vector_12" d="M68.4768 83.7086C68.4563 84.5811 68.7732 85.4279 69.3613 86.0728C69.9434 86.644 70.664 87.0542 71.4525 87.263C72.4394 87.665 73.5378 87.6999 74.5483 87.3613C74.5467 86.0639 74.3441 84.7746 73.9477 83.5393C73.9079 83.3437 73.8282 83.1584 73.7136 82.9949C73.599 82.8314 73.4519 82.6933 73.2816 82.5893C73.0683 82.5129 72.8395 82.4904 72.6154 82.5238C71.1672 82.631 69.7574 83.0402 68.4768 83.725" fill="#263238"/>
<g id="Group" opacity="0.3">
<path id="Vector_13" d="M25.7631 109.922C26.1999 112.81 26.9971 115.972 28.9681 118.112C30.9392 120.252 34.0459 121.53 36.8633 120.777C40.3304 119.848 42.4707 116.163 42.7492 112.587C43.0276 109.01 41.8319 105.489 40.6525 102.114C41.1985 105.341 41.7828 108.666 41.0238 111.855C40.2649 115.044 37.8406 118.063 34.5919 118.451C33.4555 118.55 32.3119 118.376 31.2565 117.942C30.2012 117.509 29.2649 116.83 28.5259 115.961C26.9642 114.306 25.9896 112.185 25.7522 109.922" fill="black"/>
</g>
<path id="Vector_14" d="M74.6028 88.639C74.6468 88.9194 74.6468 89.2049 74.6028 89.4853C74.541 90.2527 74.4187 91.014 74.2369 91.7621C73.9687 92.8761 73.5768 93.9566 73.0685 94.9835C72.4538 96.2673 71.5647 97.4006 70.4641 98.3032C69.3417 99.1597 68.0903 99.8324 66.7567 100.296C65.6826 100.685 64.5776 100.983 63.4534 101.186C62.6995 101.33 61.9372 101.427 61.1712 101.475C60.8928 101.521 60.6087 101.521 60.3303 101.475C60.3303 101.399 61.5151 101.301 63.3825 100.864C64.4762 100.617 65.5509 100.292 66.5984 99.892C67.8769 99.4202 69.0784 98.7615 70.1638 97.9374C71.2082 97.0764 72.0618 96.0071 72.6699 94.7979C73.1828 93.8055 73.5961 92.7649 73.9039 91.6911C74.4335 89.8293 74.5154 88.6335 74.6028 88.639Z" fill="#263238"/>
<path id="Vector_15" d="M51.0376 91.085C50.6778 91.233 50.3904 91.5164 50.2373 91.874C50.0842 92.2317 50.0775 92.6352 50.2188 92.9978C50.3601 93.3603 50.638 93.6529 50.9928 93.8127C51.3476 93.9724 51.7509 93.9866 52.116 93.8521C52.4811 93.7176 52.7788 93.4451 52.9451 93.0934C53.1115 92.7416 53.1331 92.3387 53.0054 91.9711C52.8777 91.6036 52.6109 91.3008 52.2623 91.128C51.9137 90.9551 51.5112 90.926 51.1414 91.0468" fill="#263238"/>
<path id="Vector_16" d="M45.4518 92.8159C45.2716 92.8868 44.9713 92.6521 44.7475 92.1388C44.4756 91.4569 44.4185 90.7083 44.5837 89.993C44.7248 89.2736 45.0853 88.6156 45.6156 88.1093C46.0306 87.7326 46.4019 87.6398 46.5384 87.7763C46.8168 88.082 46.2544 89.0485 45.9924 90.2988C45.7303 91.5491 45.8559 92.6521 45.4518 92.8159Z" fill="#263238"/>
<path id="Vector_17" d="M65.5775 188.333C65.5775 188.366 65.0315 188.333 64.0104 188.382C63.4001 188.41 62.7926 188.481 62.1923 188.595C61.4005 188.739 60.6383 189.014 59.9373 189.409C58.3703 190.277 56.8469 191.833 55.0997 193.444C53.3525 195.054 51.7746 197.211 49.5032 198.844C48.3987 199.652 47.1225 200.193 45.774 200.427C44.4691 200.64 43.2078 200.613 42.023 200.705C40.9074 200.742 39.8126 201.018 38.8125 201.514C37.9579 201.977 37.2246 202.635 36.6722 203.435C35.8515 204.595 35.4194 205.985 35.4383 207.405C35.4685 207.924 35.536 208.44 35.6403 208.95C35.4491 208.458 35.3438 207.938 35.3291 207.41C35.2632 205.955 35.6775 204.518 36.5084 203.321C37.0662 202.485 37.8148 201.795 38.6924 201.306C39.7185 200.785 40.8456 200.492 41.9957 200.449C43.1969 200.345 44.4527 200.361 45.7194 200.154C47.0256 199.922 48.2617 199.395 49.334 198.614C51.5562 197.014 53.156 194.896 54.9141 193.258C56.6722 191.62 58.1901 190.108 59.8281 189.229C60.5545 188.838 61.3404 188.571 62.154 188.437C62.7621 188.334 63.3774 188.279 63.9941 188.273C64.5018 188.273 64.895 188.273 65.1625 188.3C65.3015 188.3 65.4402 188.311 65.5775 188.333Z" fill="#263238"/>
<path id="Vector_18" d="M45.2444 204.97C45.4086 204.929 45.578 204.915 45.7467 204.926C46.2044 204.932 46.6602 204.987 47.1063 205.09C48.6056 205.418 49.9634 206.21 50.9868 207.354C52.0101 208.498 52.6468 209.935 52.8065 211.462C52.8556 211.917 52.8556 212.377 52.8065 212.832C52.8015 213 52.7683 213.166 52.7082 213.323C52.6536 213.323 52.7683 212.608 52.599 211.483C52.3918 210.017 51.7533 208.644 50.7647 207.541C49.776 206.437 48.4817 205.653 47.0462 205.286C45.9597 204.992 45.239 205.024 45.2444 204.97Z" fill="#263238"/>
<path id="Vector_19" d="M50.6336 212.166C50.5878 212.605 50.4502 213.029 50.2295 213.411C49.7451 214.367 49.0057 215.17 48.0932 215.732C47.1806 216.294 46.1305 216.592 45.0589 216.594C44.6179 216.624 44.1757 216.555 43.7649 216.392C43.7649 216.348 44.2617 216.441 45.048 216.392C46.0728 216.339 47.0679 216.029 47.9418 215.491C48.8156 214.953 49.5404 214.204 50.0493 213.313C50.4479 212.63 50.5844 212.166 50.6336 212.166Z" fill="#263238"/>
<path id="Vector_20" d="M45.9215 208.644C45.9215 208.688 45.4847 208.775 44.8295 209.054C43.9661 209.41 43.1903 209.949 42.5559 210.635C41.9214 211.32 41.4434 212.135 41.1549 213.023C40.9256 213.706 40.8765 214.153 40.8273 214.148C40.7907 213.748 40.8372 213.344 40.9638 212.963C41.2155 212.019 41.6958 211.15 42.3624 210.435C43.0289 209.72 43.8612 209.18 44.7858 208.863C45.1441 208.709 45.5316 208.634 45.9215 208.644Z" fill="#263238"/>
<path id="Vector_21" d="M77.0162 210.359C77.0267 209.992 77.0651 209.627 77.1309 209.267C77.2449 208.392 77.1647 207.503 76.8961 206.662C76.5964 205.84 75.9925 205.164 75.209 204.773C74.8706 204.642 74.5192 204.546 74.1606 204.489C74.5371 204.386 74.9379 204.421 75.2909 204.588C75.7228 204.769 76.1124 205.039 76.4347 205.379C76.7571 205.719 77.0053 206.123 77.1636 206.564C77.4541 207.444 77.5105 208.385 77.3274 209.294C77.2864 209.664 77.1811 210.025 77.0162 210.359Z" fill="#263238"/>
<path id="Vector_22" d="M23.1042 204.102C23.1042 204.151 22.5964 204.102 21.8101 204.205C20.7852 204.355 19.8175 204.771 19.0037 205.412C18.2008 206.069 17.582 206.923 17.2074 207.891C16.9234 208.633 16.8743 209.136 16.8252 209.13C16.7902 208.684 16.8574 208.236 17.0217 207.82C17.3501 206.784 17.9773 205.869 18.8244 205.189C19.6715 204.509 20.7008 204.095 21.7828 203.998C22.2254 203.931 22.6775 203.966 23.1042 204.102Z" fill="#263238"/>
<path id="Vector_23" d="M91.0811 199.122C91.0811 199.122 91.3432 198.778 91.7581 198.123C92.3394 197.201 92.7948 196.206 93.1122 195.164C93.5749 193.613 93.7778 191.997 93.7128 190.381C93.6423 188.403 93.1783 186.46 92.3478 184.664C91.5261 182.865 90.241 181.316 88.6241 180.176C87.3164 179.242 85.829 178.589 84.2561 178.259C83.1891 178.042 82.0874 178.063 81.0292 178.32C80.7432 178.4 80.4624 178.499 80.1884 178.614C80.0956 178.663 79.9963 178.698 79.8936 178.718C79.9774 178.654 80.0692 178.601 80.1666 178.56C80.4318 178.419 80.7096 178.304 80.9965 178.216C82.0613 177.908 83.1836 177.856 84.2725 178.063C85.8946 178.363 87.4329 179.009 88.7824 179.958C89.5862 180.507 90.3117 181.162 90.9391 181.907C91.6058 182.712 92.1689 183.598 92.6154 184.544C93.4638 186.374 93.9301 188.358 93.9858 190.375C94.0412 192.018 93.814 193.658 93.3142 195.224C92.9746 196.276 92.4855 197.275 91.8619 198.188C91.6326 198.505 91.4469 198.734 91.3159 198.898C91.2461 198.981 91.1673 199.056 91.0811 199.122Z" fill="#263238"/>
<path id="Vector_24" d="M25.0206 171.216C22.4785 170.635 19.8129 170.974 17.4967 172.172C16.0272 172.907 14.7344 173.952 13.7075 175.235C13.177 175.888 12.7599 176.627 12.4735 177.419C12.2212 178.166 12.0384 178.936 11.9275 179.717C11.7448 181.054 11.6663 182.403 11.6927 183.752C11.6927 184.904 11.7364 185.838 11.7528 186.482C11.7528 186.777 11.7528 187.028 11.7528 187.225C11.7667 187.312 11.7667 187.4 11.7528 187.487C11.7275 187.404 11.7146 187.317 11.7146 187.23C11.7146 187.023 11.6763 186.782 11.6545 186.488C11.6054 185.838 11.5398 184.904 11.5016 183.758C11.4493 182.397 11.5096 181.035 11.6818 179.684C11.7878 178.884 11.9706 178.096 12.2278 177.331C12.5197 176.506 12.9499 175.736 13.5 175.054C14.5528 173.74 15.8843 172.675 17.3984 171.937C18.6277 171.33 19.9552 170.948 21.3187 170.807C22.2301 170.714 23.1503 170.758 24.0487 170.938C24.2948 170.983 24.5374 171.045 24.7749 171.123C24.8604 171.144 24.9429 171.175 25.0206 171.216Z" fill="#263238"/>
<path id="Vector_25" d="M2.49806 159.373C2.42346 159.182 2.37568 158.982 2.3561 158.778C2.25862 158.236 2.19299 157.689 2.15954 157.14C1.91066 153.446 2.69124 149.754 4.41452 146.477C4.66683 145.969 4.95133 145.479 5.26628 145.008C5.36685 144.829 5.48978 144.664 5.6321 144.517C5.67578 144.544 5.20076 145.276 4.58924 146.531C2.99238 149.817 2.2274 153.445 2.36156 157.096C2.4107 158.511 2.5472 159.368 2.49806 159.373Z" fill="#263238"/>
<path id="Vector_26" d="M0.745443 160.225C0.669065 160.034 0.615905 159.834 0.587103 159.63C0.494283 159.248 0.401462 158.68 0.308642 157.992C-0.140321 154.318 0.221241 150.591 1.36788 147.072C1.59174 146.4 1.79376 145.865 1.95756 145.505C2.02521 145.313 2.115 145.13 2.2251 144.959C2.27424 144.959 1.9521 145.794 1.55898 147.143C0.528024 150.664 0.172335 154.349 0.510663 158.003C0.636243 159.357 0.794583 160.22 0.745443 160.225Z" fill="#263238"/>
<g id="Group_2" opacity="0.3">
<path id="Vector_27" d="M36.3611 181.874C38.6342 184.372 40.258 187.391 41.0895 190.665C41.3306 191.371 41.3401 192.136 41.1168 192.849C40.4889 194.323 38.4632 194.388 37.0818 195.185C35.9189 195.852 35.2036 197.064 34.5375 198.227L27.7671 209.998C29.8583 209.824 30.6336 210.042 32.7248 209.873L36.0881 209.944C35.9626 209.998 35.4329 208.344 35.3893 207.569C35.2528 205.199 36.8525 202.333 38.9819 201.279C41.6519 199.952 44.7258 201.06 47.4395 199.815C50.033 198.62 51.5781 196.796 53.2653 195.125C55.3838 193.023 57.4859 190.211 60.1995 188.994C61.428 188.448 64.36 188.382 64.36 188.382C62.9677 186.744 60.4124 186.826 58.354 187.383C56.2956 187.94 54.1444 188.852 52.0423 188.377C50.2787 187.984 48.8755 186.679 47.5705 185.428C44.2235 182.229 40.7619 178.876 39.2658 174.47L36.4758 181.683" fill="black"/>
</g>
<g id="Group_3" opacity="0.3">
<path id="Vector_28" d="M82.2251 210.009C83.3171 207.356 80.8383 204.222 79.8446 201.535C78.8509 198.849 79.0583 195.813 79.0638 192.914C79.0792 186.788 78.0905 180.702 76.1372 174.896C75.9188 182.857 76.8307 191.309 77.3057 199.253C77.404 200.94 77.2729 202.889 78.5123 204.036C79.1457 204.626 79.5224 204.369 80.2322 204.86C80.942 205.352 82.3343 206.498 82.2251 209.993" fill="black"/>
</g>
<path id="Vector_29" d="M50.0711 131.593C49.0617 131.235 48.1335 130.68 47.3405 129.96C46.5475 129.24 45.9055 128.37 45.4519 127.4C46.0966 128.224 46.7914 129.008 47.5322 129.747C48.3373 130.417 49.1854 131.034 50.0711 131.593Z" fill="#263238"/>
<path id="Vector_30" d="M52.1185 130.473C50.3679 129.946 48.8354 128.866 47.7505 127.394C47.816 127.339 48.6405 128.208 49.8471 129.032C51.0538 129.856 52.1512 130.392 52.1185 130.473Z" fill="#263238"/>
<path id="Vector_31" d="M54.8158 130.375C53.9561 130.223 53.1454 129.868 52.4516 129.338C51.7049 128.888 51.0746 128.269 50.6116 127.531C50.6771 127.47 51.447 128.322 52.6099 129.103C53.7729 129.884 54.8431 130.293 54.8158 130.375Z" fill="#263238"/>
<path id="Vector_32" d="M36.2464 153.826C35.2526 153.397 34.3791 152.732 33.702 151.888C32.9576 151.105 32.4191 150.15 32.135 149.108C32.6702 150.013 33.2668 150.879 33.9204 151.702C34.6479 152.461 35.4249 153.17 36.2464 153.826Z" fill="#263238"/>
<path id="Vector_33" d="M38.2611 153.853C36.717 152.899 35.5294 151.464 34.8813 149.769C34.9578 149.731 35.5202 150.785 36.4538 151.909C37.3875 153.034 38.3102 153.788 38.2611 153.853Z" fill="#263238"/>
<path id="Vector_34" d="M41.772 154.536C41.0638 153.983 40.416 153.357 39.8391 152.668C39.1921 152.044 38.6137 151.352 38.1138 150.604C38.8211 151.16 39.4689 151.788 40.0466 152.477C40.6927 153.101 41.2711 153.791 41.772 154.536Z" fill="#263238"/>
<path id="Vector_35" d="M30.9393 109.098C30.9393 109.098 30.6936 108.999 30.3933 108.704C30.0396 108.309 29.7751 107.841 29.618 107.334C29.4441 106.831 29.379 106.297 29.4269 105.767C29.4705 105.363 29.5688 105.128 29.6016 105.134C29.6042 105.845 29.6997 106.554 29.8855 107.241C30.1506 107.905 30.5051 108.53 30.9393 109.098Z" fill="#263238"/>
<path id="Vector_36" d="M31.9002 108.677C31.4881 108.285 31.2013 107.78 31.0758 107.225C30.8664 106.696 30.8151 106.117 30.9283 105.56C31.0157 105.56 31.0812 106.291 31.3488 107.137C31.6163 107.984 31.9657 108.633 31.9002 108.677Z" fill="#263238"/>
<path id="Vector_37" d="M34.0678 110.064C33.0353 108.88 32.3744 107.417 32.1677 105.86C32.2496 105.86 32.539 106.832 33.0632 107.984C33.5873 109.136 34.1333 109.988 34.0678 110.064Z" fill="#263238"/>
<path id="Vector_38" d="M98.3703 9.2451C94.1388 11.8386 92.7028 18.1012 92.5227 23.0589C92.3425 28.0166 93.6911 32.8869 94.7886 37.7299C95.886 42.5729 96.7323 47.6453 95.542 52.4719C94.45 56.9382 91.6545 61.6447 93.6583 65.7834C95.1708 68.9065 99.0419 70.5281 100.112 73.8314C101.357 77.6862 98.2065 81.4754 95.3127 84.2873C96.0076 85.3404 97.0684 86.0982 98.29 86.4139C99.5115 86.7296 100.807 86.5808 101.925 85.9963C101.888 86.5835 101.73 87.1567 101.462 87.68C101.193 88.2034 100.819 88.6656 100.363 89.0376C102.017 89.435 103.751 89.3483 105.357 88.7877C106.963 88.2272 108.374 87.2165 109.421 85.8762C109.023 87.2521 108.619 88.6062 108.22 90.004C111.543 89.2191 114.43 87.1705 116.268 84.2928L117.66 86.9027C122.984 83.2445 126.686 77.4896 128.504 71.2871C130.322 65.0845 130.339 58.4615 129.296 52.0843C127.746 43.0605 124.155 34.5104 118.795 27.0875C113.435 19.6646 106.449 13.5654 98.3703 9.25602" fill="#263238"/>
<path id="Vector_39" d="M160.298 54.716C158.403 52.4392 156.066 50.1787 155.804 47.2249C155.689 45.9254 156.001 44.5877 155.706 43.31C154.941 40.034 150.661 38.7182 149.372 35.5951C147.734 31.6748 151.436 26.4878 148.706 23.2391C147.396 21.683 145.141 21.3772 143.421 20.2907C139.053 17.5225 140.112 9.91668 129.634 4.38024L130.415 21.0988C133.946 35.2384 136.751 49.5496 138.818 63.9761L162.465 62.8077C163.814 60.176 162.198 56.9928 160.298 54.716Z" fill="#263238"/>
<path id="Vector_40" d="M93.3635 15.3385C93.4886 13.2526 94.0281 11.2126 94.9506 9.33763C95.8731 7.46267 97.16 5.79038 98.7362 4.41847C102.203 1.42639 106.882 0.0941463 111.458 0.0504663C116.033 0.00678632 120.56 1.09333 124.917 2.50201C127.363 3.29371 129.831 4.21099 131.813 5.84353C135.438 8.81923 136.88 13.6295 138.141 18.1449C139.157 21.7976 140.183 25.636 139.342 29.3324C138.941 31.0318 138.164 32.6195 137.068 33.9784C135.972 35.3373 134.585 36.4328 133.009 37.1839" fill="#263238"/>
<path id="Vector_41" d="M94.6302 12.1935C92.1456 16.4084 91.1668 21.3424 91.8543 26.1865C92.5418 31.0307 94.8547 35.4975 98.4139 38.8547C98.5355 28.3139 99.575 17.8037 101.521 7.4433" fill="#263238"/>
<path id="Vector_42" d="M93.6693 26.6953C92.5773 19.3079 95.5093 9.33246 102.951 8.55714L120.669 9.22872C126.353 9.44712 130.923 13.2254 132.512 18.6854C132.588 18.9584 132.544 18.6145 132.583 18.8274L140.816 63.108C141.458 66.5954 140.695 70.1951 138.695 73.1229C136.695 76.0508 133.619 78.0697 130.137 78.74C126.687 79.4036 123.114 78.6891 120.185 76.7499C117.256 74.8107 115.203 71.8009 114.466 68.366C113.697 64.8224 112.796 60.6401 112.796 60.6619C112.796 60.6838 103.153 61.0933 98.6379 49.3543C96.3938 43.5121 94.8814 34.9016 93.6693 26.6953Z" fill="#9D6054"/>
<path id="Vector_43" d="M109.547 19.3024C107.405 20.5215 105.036 21.2889 102.585 21.5574C102.585 21.47 104.169 21.1206 106.085 20.4982C108.002 19.8757 109.509 19.226 109.547 19.3024Z" fill="#724A44"/>
<path id="Vector_44" d="M106.74 19.4553C105.411 20.2205 103.906 20.6287 102.372 20.6401C103.085 20.385 103.814 20.1825 104.556 20.0341C105.269 19.7879 105.999 19.5944 106.74 19.4553Z" fill="#724A44"/>
<path id="Vector_45" d="M116.978 42.4146C116.901 42.4419 116.688 41.9723 116.132 41.7649C115.575 41.5574 115.105 41.7649 115.067 41.6611C115.029 41.5574 115.143 41.5192 115.362 41.4427C115.65 41.35 115.962 41.3636 116.241 41.4809C116.524 41.5882 116.762 41.7909 116.912 42.0542C117.011 42.2617 117.005 42.4091 116.978 42.4146Z" fill="#724A44"/>
<path id="Vector_46" d="M98.4139 35.6333C98.4972 36.0404 98.7361 36.3989 99.0798 36.6324C99.4235 36.8659 99.8448 36.9561 100.254 36.8836C100.456 36.8577 100.65 36.7914 100.826 36.6889C101.001 36.5863 101.155 36.4494 101.276 36.2864C101.398 36.1234 101.486 35.9377 101.534 35.7401C101.583 35.5425 101.591 35.3372 101.559 35.1364C101.477 34.7298 101.239 34.3713 100.896 34.1377C100.553 33.904 100.133 33.8137 99.7243 33.8861C99.5227 33.9128 99.3284 33.9795 99.1528 34.0822C98.9773 34.1849 98.824 34.3217 98.702 34.4844C98.58 34.6471 98.4916 34.8325 98.4422 35.0298C98.3927 35.2271 98.3831 35.4322 98.4139 35.6333Z" fill="#263238"/>
<path id="Vector_47" d="M96.918 31.3909C97.1528 31.5547 98.1465 30.4299 99.8281 30.075C101.51 29.7201 102.913 30.2989 103.05 30.075C103.121 29.9658 102.848 29.6382 102.225 29.3597C101.393 29.0141 100.474 28.9322 99.5934 29.125C98.7218 29.309 97.9306 29.7639 97.3329 30.4244C96.9016 30.894 96.8033 31.3199 96.918 31.3909Z" fill="#263238"/>
<path id="Vector_48" d="M113.478 32.3409C113.555 32.7578 113.794 33.1272 114.143 33.3677C114.492 33.6083 114.923 33.7005 115.34 33.624C115.541 33.5973 115.735 33.5306 115.911 33.4278C116.086 33.325 116.239 33.1882 116.36 33.0254C116.482 32.8626 116.57 32.6771 116.619 32.4798C116.668 32.2826 116.676 32.0775 116.645 31.8768C116.563 31.4698 116.325 31.1109 115.983 30.8764C115.64 30.6419 115.219 30.5502 114.81 30.621C114.609 30.6445 114.415 30.708 114.238 30.8076C114.062 30.9072 113.907 31.041 113.783 31.2012C113.659 31.3613 113.568 31.5446 113.516 31.7403C113.463 31.936 113.45 32.1402 113.478 32.3409Z" fill="#263238"/>
<path id="Vector_49" d="M113.467 28.1968C113.707 28.3606 114.701 27.2358 116.377 26.8809C118.053 26.526 119.462 27.1102 119.604 26.8809C119.67 26.7717 119.397 26.4441 118.78 26.1711C117.947 25.8201 117.025 25.7361 116.142 25.9309C115.269 26.1147 114.478 26.5717 113.882 27.2358C113.451 27.7217 113.352 28.1258 113.467 28.1968Z" fill="#263238"/>
<path id="Vector_50" d="M110.027 41.9287C110.027 41.8304 108.935 41.8741 107.199 42.016C106.762 42.0652 106.336 42.0652 106.205 41.7867C106.068 41.3551 106.068 40.8915 106.205 40.4599C106.385 39.3352 106.577 38.1613 106.779 36.9273C107.548 31.9096 108.007 27.82 107.805 27.7927C107.603 27.7654 106.817 31.8058 106.042 36.8236C105.86 38.0575 105.688 39.2369 105.528 40.3616C105.368 40.9366 105.417 41.5496 105.665 42.0925C105.759 42.2301 105.883 42.3445 106.027 42.4268C106.172 42.5091 106.334 42.5573 106.5 42.5675C106.751 42.5797 107.002 42.5613 107.248 42.5129C108.984 42.2453 110.044 42.0269 110.027 41.9287Z" fill="#263238"/>
<path id="Vector_51" d="M127.98 52.876C127.98 52.876 125.796 62.0651 113.413 63.5175L112.796 60.6619C118.48 59.5224 123.737 56.8269 127.98 52.876Z" fill="#724A44"/>
<path id="Vector_52" d="M111.594 45.8216C111.829 45.3518 112.179 44.9494 112.611 44.6523C113.044 44.3552 113.545 44.1733 114.068 44.1236C114.445 44.0778 114.828 44.1089 115.193 44.2149C115.558 44.321 115.898 44.4998 116.192 44.7406C116.473 44.9741 116.676 45.2881 116.774 45.6405C116.871 45.9928 116.859 46.3666 116.738 46.7116C116.532 47.0699 116.225 47.3587 115.854 47.5406C115.483 47.7226 115.067 47.7894 114.658 47.7326C113.804 47.6224 112.982 47.342 112.239 46.9082C112.022 46.814 111.824 46.6808 111.655 46.5151C111.574 46.4354 111.519 46.3341 111.496 46.2235C111.473 46.1128 111.482 45.9978 111.523 45.8926" fill="#724A44"/>
<path id="Vector_53" d="M115.209 42.0379C114.936 42.0815 115.318 43.9052 114.035 45.5268C112.752 47.1484 110.759 47.3614 110.808 47.618C110.808 47.7381 111.316 47.8801 112.14 47.7272C113.215 47.521 114.182 46.9407 114.87 46.0892C115.525 45.2723 115.837 44.2324 115.738 43.1899C115.629 42.4091 115.34 42.0051 115.209 42.0379Z" fill="#263238"/>
<path id="Vector_54" d="M112.009 23.3756C112.272 23.796 113.899 23.2227 115.919 23.0425C117.939 22.8623 119.643 23.0425 119.817 22.5948C119.888 22.3764 119.522 22.0051 118.785 21.6994C117.814 21.3411 116.774 21.2085 115.744 21.3116C114.714 21.4147 113.72 21.7508 112.839 22.2945C112.179 22.7368 111.895 23.1736 112.009 23.3756Z" fill="#263238"/>
<path id="Vector_55" d="M96.5029 26.4059C96.8796 26.7226 97.9498 26.0837 99.3366 25.7671C100.723 25.4504 101.952 25.4777 102.143 25.0245C102.219 24.8061 101.952 24.4785 101.362 24.211C100.582 23.9247 99.7341 23.8757 98.9258 24.07C98.1175 24.2643 97.3847 24.6933 96.8195 25.303C96.41 25.8217 96.3336 26.2475 96.5029 26.4059Z" fill="#263238"/>
<path id="Vector_56" d="M94.5919 14.8907C94.9414 12.9033 96.7104 11.3745 98.6596 10.8503C100.609 10.3262 102.695 10.6592 104.616 11.2817C112.746 13.9079 118.6 21.3335 126.675 24.1236C128.662 24.8116 130.781 25.2156 132.577 26.3076C134.373 27.3996 135.853 29.4416 135.405 31.5001C136.157 30.0085 136.689 28.4158 136.983 26.7717C137.127 25.9483 137.093 25.1037 136.883 24.2947C136.673 23.4857 136.292 22.7311 135.766 22.0816C134.919 21.1424 133.653 20.5582 133.09 19.4225C132.599 18.4234 132.779 17.2385 132.501 16.1465C132.141 15.0659 131.531 14.0855 130.721 13.2855C126.861 8.9175 122.045 5.2866 116.487 3.5667C112.848 2.38912 108.957 2.22863 105.233 3.1026C101.496 3.99352 98.2021 6.19643 95.9515 9.31063C94.6738 11.1397 93.3198 13.0453 94.5865 14.8907" fill="#263238"/>
<path id="Vector_57" d="M140.025 33.3346C139.708 33.2527 139.675 32.4228 139.435 31.1124C139.32 30.3826 139.078 29.6785 138.72 29.0321C138.623 28.8759 138.513 28.7279 138.392 28.5899C138.334 28.524 138.272 28.462 138.206 28.4042L137.944 28.164C137.552 27.816 137.134 27.4984 136.694 27.214C136.332 26.9619 135.921 26.7889 135.487 26.7062C135.345 26.7062 135.323 26.7389 135.389 26.7444L134.979 26.9191L134.543 27.1266C133.977 27.4039 133.445 27.7465 132.959 28.1476C132.703 28.3551 132.451 28.5844 132.195 28.8301L132.004 29.0212L131.676 29.327C131.455 29.5216 131.224 29.7038 130.983 29.873C130.003 30.5503 128.883 30.9982 127.707 31.1834C126.99 31.2942 126.258 31.2702 125.55 31.1124L125.255 31.036L125.02 30.9541C124.868 30.8995 124.704 30.8503 124.556 30.7848C124.253 30.6561 123.957 30.5084 123.672 30.3425C122.639 29.7126 121.727 28.9026 120.98 27.9511C120.254 27.072 119.708 26.2148 119.162 25.434C117.213 22.5973 114.831 20.0843 112.102 17.9866C109.85 16.2536 107.397 14.7981 104.797 13.6513C103.094 12.8296 101.283 12.2524 99.4185 11.9369C98.1136 11.7458 97.2946 11.7949 97.1799 11.4782C97.0652 11.1616 97.7259 10.5391 99.3093 10.1515C100.893 9.76381 103.257 9.86754 105.861 10.5883C108.962 11.4172 111.904 12.7568 114.565 14.5522C117.86 16.7543 120.705 19.5656 122.946 22.835C123.492 23.6759 124.038 24.4348 124.518 25.0682C124.925 25.6119 125.417 26.0858 125.976 26.4714C126.086 26.5433 126.201 26.6072 126.32 26.6625C126.377 26.6913 126.435 26.7168 126.495 26.7389L126.577 26.7717H126.615C126.791 26.8257 126.978 26.8406 127.161 26.8154C127.713 26.7468 128.243 26.5606 128.717 26.2694C128.837 26.1984 128.946 26.1274 129.05 26.0564L129.197 25.9472L129.465 25.7179C129.831 25.4122 130.213 25.1228 130.606 24.8552C131.382 24.328 132.22 23.8989 133.101 23.5776C133.309 23.5066 133.511 23.4356 133.713 23.3756L134.008 23.2828L134.352 23.1899C135.015 23.0121 135.716 23.0273 136.372 23.2336C137.241 23.5169 138.037 23.9886 138.703 24.615C139.231 25.0849 139.71 25.6062 140.134 26.1711C140.237 26.3076 140.319 26.4113 140.429 26.5806C140.54 26.7374 140.64 26.9016 140.729 27.072C140.892 27.3789 141.025 27.7007 141.127 28.033C141.41 29.0318 141.451 30.0836 141.248 31.1015C140.898 32.7176 140.314 33.4165 140.025 33.3346Z" fill="#263238"/>
<path id="Vector_58" d="M133.221 28.164C133.276 27.7873 139.124 24.14 140.652 30.8558C142.143 37.4078 135.263 37.5115 135.192 37.3313C135.122 37.1512 133.221 28.164 133.221 28.164Z" fill="#9D6054"/>
<path id="Vector_59" d="M136.667 34.3939C136.694 34.3939 136.798 34.4485 137.011 34.4921C137.308 34.5454 137.615 34.4829 137.868 34.3174C138.496 33.9079 138.834 32.6794 138.599 31.5001C138.493 30.9363 138.26 30.4042 137.917 29.944C137.81 29.753 137.658 29.5909 137.475 29.472C137.291 29.3531 137.081 29.2808 136.863 29.2615C136.725 29.2578 136.59 29.3021 136.48 29.3866C136.371 29.4712 136.294 29.5909 136.263 29.7256C136.213 29.9276 136.263 30.0477 136.263 30.0641C136.263 30.0805 136.093 29.9876 136.088 29.7092C136.088 29.5386 136.146 29.3731 136.252 29.2396C136.401 29.0645 136.612 28.9547 136.841 28.9339C137.122 28.9257 137.4 28.9897 137.648 29.1197C137.897 29.2498 138.108 29.4414 138.261 29.6764C138.666 30.1788 138.942 30.7732 139.064 31.4072C139.315 32.734 138.922 34.1372 138.037 34.6013C137.872 34.6934 137.687 34.7467 137.498 34.7571C137.309 34.7675 137.12 34.7348 136.945 34.6614C136.716 34.5467 136.634 34.4102 136.667 34.3939Z" fill="#724A44"/>
<path id="Vector_60" d="M111.25 75.6223C109.934 76.1866 108.743 77.0087 107.749 78.0402C106.755 79.0717 105.978 80.2917 105.463 81.6283C103.655 86.2038 95.804 114.055 95.804 114.055L79.424 116.157L78.1846 131.292C82.9217 132.527 87.7546 133.36 92.6317 133.782C98.6705 134.328 108.433 133.427 110.977 132.002C113.522 130.577 110.726 76.2721 110.726 76.2721L111.25 75.6223Z" fill="#F2F3F3"/>
<path id="Vector_61" d="M114.57 71.4891C119.757 77.3805 133.385 65.434 139.451 55.939L119.937 147.585L116.607 146.772L114.57 71.4891Z" fill="#455A64"/>
<path id="Vector_62" d="M114.166 67.476L112.91 73.4274L108.242 77.6534C108.182 85.4285 112.386 100.957 111.338 104.069C109.847 108.519 109.252 113.127 111.037 119.614C111.949 122.933 117.469 146.772 117.469 146.772C117.469 146.772 115.886 209.152 116.061 209.982H128.75L116.361 126.99L115.886 75.0053L114.166 67.476Z" fill="#F2F3F3"/>
<path id="Vector_63" d="M195.569 170.43C191.638 160.602 177.098 135.453 177.098 135.453C177.098 135.453 175.919 126.613 174.914 107.159C173.909 87.7053 165.506 65.8981 163.737 62.562C161.968 59.2259 142.312 55.9445 142.312 55.9445L138.872 50.9377C138.872 50.9377 131.545 70.206 131.174 70.752C130.803 71.298 122.935 94.4266 122.148 100.913C121.362 107.4 119.162 142.333 119.162 142.333L128.75 209.982H200.232C200.232 209.982 199.5 180.252 195.569 170.43Z" fill="#F2F3F3"/>
<path id="Vector_64" d="M129.356 167.984L164.911 163.971H165.037V164.096C166.047 174.978 167.221 187.896 168.531 201.705C168.673 203.228 168.81 204.735 168.952 206.236V206.384H168.848L140.265 207.039H140.167L140.139 206.941C136.972 195.344 134.313 185.598 132.441 178.745C131.491 175.333 130.743 172.641 130.224 170.796L129.618 168.699L129.449 168.153C129.405 168.033 129.378 167.978 129.383 167.978C129.417 168.032 129.447 168.088 129.47 168.147C129.514 168.268 129.58 168.442 129.656 168.693C129.814 169.163 130.027 169.862 130.3 170.779C130.846 172.608 131.622 175.295 132.588 178.713C134.515 185.543 137.213 195.278 140.385 206.881L140.259 206.788L168.842 206.1L168.706 206.258C168.571 204.759 168.431 203.248 168.286 201.726C167.019 187.913 165.834 174.972 164.835 164.113L164.966 164.222L129.356 167.984Z" fill="#263238"/>
<path id="Vector_65" d="M165.747 172.991C165.747 173.067 158.103 173.689 148.701 174.377C139.298 175.065 131.638 175.562 131.633 175.469C131.627 175.377 139.277 174.77 148.679 174.083C158.081 173.395 165.741 172.909 165.747 172.991Z" fill="#263238"/>
<path id="Vector_66" d="M176.836 135.349C176.708 135.458 176.567 135.55 176.415 135.622C176.137 135.781 175.716 135.994 175.192 136.234C173.817 136.856 172.373 137.314 170.89 137.599C169.408 137.868 167.903 137.992 166.396 137.97C165.818 137.97 165.353 137.943 165.031 137.915C164.863 137.917 164.696 137.895 164.534 137.85C165.151 137.787 165.771 137.76 166.391 137.768C167.883 137.732 169.371 137.582 170.841 137.32C172.303 137.034 173.735 136.608 175.116 136.048C175.677 135.786 176.251 135.553 176.836 135.349Z" fill="#263238"/>
<path id="Vector_67" d="M177.098 135.453C176.734 135.908 176.328 136.328 175.886 136.709C175.105 137.451 173.997 138.445 172.752 139.515L169.569 142.245C169.145 142.638 168.696 143.003 168.226 143.337C168.586 142.879 168.992 142.458 169.438 142.081C170.218 141.339 171.327 140.345 172.566 139.27L175.749 136.54C176.173 136.146 176.623 135.783 177.098 135.453Z" fill="#263238"/>
<path id="Vector_68" d="M152.807 188.328C151.436 187.831 149.94 187.634 148.673 188.36C148.181 188.683 147.79 189.14 147.546 189.676C147.303 190.213 147.216 190.807 147.297 191.391C147.483 192.564 148.06 193.64 148.935 194.443C149.467 195.049 150.204 195.438 151.005 195.535C151.909 195.498 152.763 195.105 153.38 194.443C154.075 193.855 154.615 193.105 154.952 192.259C155.116 191.832 155.178 191.372 155.136 190.917C155.093 190.462 154.946 190.022 154.707 189.633C154.117 188.759 153.036 188.377 152.026 188.049" fill="#EDA61A"/>
<path id="Vector_69" d="M148.138 187.596C148.255 187.016 148.192 186.414 147.958 185.871C147.838 185.604 147.66 185.368 147.437 185.179C147.214 184.99 146.952 184.853 146.669 184.779C146.383 184.706 146.082 184.719 145.804 184.817C145.525 184.914 145.281 185.09 145.102 185.325C144.874 185.685 144.786 186.116 144.857 186.537C144.896 186.911 145.036 187.269 145.261 187.571C145.485 187.874 145.787 188.11 146.134 188.257C146.491 188.401 146.888 188.415 147.254 188.297C147.621 188.178 147.934 187.934 148.138 187.607" fill="#EDA61A"/>
<path id="Vector_70" d="M154.242 187.88C154.831 187.867 155.402 187.677 155.88 187.334C156.119 187.163 156.317 186.941 156.46 186.684C156.602 186.427 156.686 186.142 156.705 185.849C156.717 185.554 156.642 185.263 156.491 185.009C156.34 184.756 156.118 184.553 155.853 184.424C155.452 184.273 155.01 184.273 154.608 184.424C154.25 184.539 153.93 184.747 153.679 185.027C153.429 185.308 153.257 185.65 153.183 186.018C153.113 186.398 153.179 186.79 153.37 187.126C153.561 187.461 153.864 187.719 154.226 187.853" fill="#EDA61A"/>
<path id="Vector_71" d="M157.223 189.78C157.632 189.778 158.029 189.652 158.365 189.42C158.525 189.299 158.658 189.145 158.752 188.967C158.846 188.79 158.9 188.594 158.911 188.393C158.92 188.189 158.869 187.988 158.764 187.813C158.659 187.638 158.505 187.498 158.321 187.41C158.045 187.306 157.74 187.306 157.464 187.41C157.218 187.49 156.998 187.632 156.825 187.824C156.653 188.016 156.534 188.25 156.481 188.502C156.436 188.764 156.483 189.034 156.614 189.265C156.746 189.496 156.953 189.674 157.202 189.769" fill="#EDA61A"/>
<path id="Vector_72" d="M150.895 186.881C151.542 186.618 152.094 186.164 152.479 185.581C152.667 185.289 152.787 184.958 152.832 184.614C152.876 184.269 152.843 183.919 152.735 183.588C152.619 183.261 152.41 182.975 152.133 182.765C151.857 182.554 151.526 182.429 151.179 182.404C150.674 182.412 150.19 182.606 149.82 182.95C149.478 183.233 149.217 183.602 149.064 184.02C148.912 184.437 148.873 184.887 148.952 185.325C149.046 185.769 149.291 186.166 149.646 186.45C150 186.733 150.442 186.886 150.895 186.881Z" fill="#EDA61A"/>
<path id="Vector_73" d="M122.127 118.8C122.131 118.746 122.144 118.692 122.165 118.642C122.198 118.522 122.247 118.369 122.301 118.172C122.438 117.746 122.624 117.146 122.847 116.387C123.35 114.814 124.07 112.565 124.966 109.807L132.064 88.0056C132.119 87.6234 132.179 87.2139 132.233 86.7989C132.779 83.1025 133.26 79.5481 133.729 76.2448V76.212H133.757L140.265 68.9284L140.238 68.9884L141.69 59.4935C141.865 58.4015 142.007 57.506 142.105 56.8891C142.154 56.5997 142.192 56.3758 142.22 56.2066C142.232 56.1289 142.25 56.0522 142.274 55.9772C142.283 56.0553 142.283 56.134 142.274 56.212C142.274 56.3813 142.225 56.6106 142.192 56.8945C142.11 57.5169 141.99 58.396 141.837 59.5153C141.51 61.7976 141.046 65.0518 140.483 69.0212V69.0539L134.008 76.3703L134.04 76.2994C133.576 79.6027 133.079 83.1571 132.561 86.8535C132.501 87.2685 132.446 87.6835 132.392 88.0657C129.563 96.5996 127.024 104.276 125.184 109.84C124.256 112.57 123.508 114.831 123 116.392C122.738 117.146 122.536 117.741 122.389 118.161C122.323 118.354 122.269 118.507 122.225 118.62C122.154 118.729 122.132 118.8 122.127 118.8Z" fill="#263238"/>
<path id="Vector_74" d="M116.033 125.576C116.026 125.54 116.026 125.503 116.033 125.467C116.033 125.379 115.995 125.276 115.973 125.145C115.922 124.839 115.857 124.424 115.777 123.9C115.608 122.808 115.373 121.219 115.078 119.27C114.505 115.306 113.713 109.807 112.812 103.55V103.512C113.009 101.945 113.216 100.318 113.424 98.6526C113.789 95.8079 114.139 93.0725 114.461 90.5117L114.499 90.6209L110.426 86.3949L110.382 86.3458V86.2857L112.091 76.9436C112.304 75.8516 112.473 74.9562 112.588 74.3338C112.648 74.0498 112.697 73.8205 112.73 73.6458C112.741 73.5673 112.761 73.4903 112.79 73.4165C112.799 73.4945 112.799 73.5732 112.79 73.6513C112.763 73.8314 112.73 74.0608 112.686 74.3447C112.583 74.9726 112.435 75.8571 112.255 76.9655C111.862 79.2478 111.305 82.4637 110.617 86.3294L110.59 86.2256L114.663 90.4353L114.707 90.479V90.5445C114.384 93.1052 114.035 95.8462 113.68 98.6908C113.467 100.329 113.26 101.967 113.063 103.545V103.512L115.247 119.248C115.509 121.202 115.717 122.78 115.864 123.894C115.924 124.44 115.979 124.839 116.012 125.145L116.05 125.467C116.043 125.539 116.037 125.576 116.033 125.576Z" fill="#263238"/>
<path id="Vector_75" d="M128.739 209.895C128.662 209.895 126.73 196.752 124.42 180.514C122.11 164.276 120.303 151.096 120.38 151.085C120.456 151.074 122.394 164.233 124.698 180.476C127.003 196.72 128.815 209.884 128.739 209.895Z" fill="#263238"/>
<path id="Vector_76" d="M83.6719 138.276L94.7175 135.098L101.586 151.085L86.1999 150.605L83.6719 138.926" fill="#9D6054"/>
<path id="Vector_77" d="M94.7175 135.098L103.699 156.01C103.699 156.01 148.602 143.195 151.813 139.597C155.023 135.999 161.815 103.561 162.973 97.2548C164.131 90.9485 165.408 65.4067 160.019 61.3171C154.63 57.2276 149.372 58.123 144.24 63.7687C140.085 68.3387 133.32 94.503 130.89 104.276C130.295 106.682 130.136 109.175 130.42 111.636L130.895 115.726C130.895 115.726 126.664 119.575 126.407 123.168L94.7175 135.098Z" fill="#F2F3F3"/>
<path id="Vector_78" d="M138.272 77.719C138.272 77.719 138.217 77.9483 138.103 78.3906C137.988 78.8328 137.802 79.4826 137.557 80.3561C137.082 82.0815 136.388 84.6204 135.493 87.88L132.217 99.7501C131.895 100.902 131.567 102.098 131.223 103.332C130.844 104.589 130.589 105.88 130.464 107.187C130.322 108.568 130.322 109.96 130.464 111.342C130.635 112.769 130.806 114.225 130.977 115.71V115.764L130.939 115.802C129.896 116.79 128.964 117.888 128.16 119.078C127.27 120.291 126.696 121.706 126.489 123.195V123.266L126.424 123.294L94.7558 135.246L94.8322 135.065L103.819 155.972L103.65 155.895C107.352 154.803 111.294 153.678 115.231 152.488C122.94 150.173 130.453 147.847 137.644 145.39C141.237 144.162 144.742 142.933 148.111 141.492C148.946 141.137 149.749 140.749 150.551 140.318C150.942 140.11 151.309 139.859 151.643 139.57C151.792 139.415 151.924 139.245 152.037 139.062C152.146 138.871 152.26 138.685 152.359 138.489C153.102 136.898 153.729 135.256 154.237 133.575C155.285 130.25 156.159 126.963 156.967 123.747C157.775 120.531 158.523 117.424 159.217 114.399C160.598 108.35 161.821 102.698 162.82 97.5224C163.661 92.8515 164.263 88.1407 164.622 83.4083C164.926 79.838 164.968 76.2503 164.747 72.6739C164.518 69.7365 164.005 67.476 163.312 66.0837C162.996 65.3587 162.52 64.7147 161.919 64.2L162.372 64.5931C162.509 64.7406 162.662 64.9371 162.847 65.1664C163.041 65.4507 163.214 65.7481 163.366 66.0564C164.076 67.4487 164.611 69.7255 164.857 72.663C165.099 76.2453 165.074 79.8407 164.78 83.4192C164.438 88.1586 163.849 92.8769 163.017 97.5551C162.028 102.742 160.833 108.399 159.446 114.481C158.758 117.506 158.021 120.629 157.213 123.84C156.405 127.05 155.526 130.337 154.483 133.668C153.975 135.367 153.346 137.027 152.599 138.636C152.495 138.838 152.375 139.035 152.266 139.231C152.141 139.427 151.996 139.61 151.835 139.777C151.489 140.087 151.107 140.354 150.699 140.574C149.902 141.011 149.061 141.404 148.236 141.765C144.868 143.212 141.346 144.446 137.753 145.68C130.557 148.12 123.044 150.452 115.329 152.778C111.365 153.968 107.445 155.12 103.743 156.179L103.623 156.217L103.574 156.103L94.592 135.18L94.5374 135.049L94.6739 135L126.342 123.086L126.265 123.19C126.476 121.662 127.065 120.211 127.98 118.969C128.799 117.78 129.744 116.681 130.797 115.693L130.764 115.786C130.597 114.29 130.43 112.834 130.262 111.418C130.12 110.024 130.12 108.619 130.262 107.225C130.394 105.906 130.655 104.604 131.043 103.337L132.042 99.761C133.336 95.1473 134.45 91.1615 135.362 87.9019L137.48 80.3944C137.72 79.5372 137.912 78.8874 138.026 78.4397C138.141 77.992 138.272 77.719 138.272 77.719Z" fill="#263238"/>
<path id="Vector_79" d="M132.266 127.956C131.573 126.859 130.723 125.869 129.743 125.019C128.702 124.241 127.55 123.624 126.325 123.19C126.716 123.201 127.101 123.284 127.461 123.436C129.26 124.055 130.787 125.28 131.78 126.903C132.003 127.222 132.168 127.579 132.266 127.956Z" fill="#263238"/>
<path id="Vector_80" d="M142.312 119.472C142.269 119.504 141.859 118.866 140.986 118.036C139.852 116.948 138.476 116.147 136.971 115.698C135.466 115.249 133.875 115.165 132.331 115.453C131.147 115.671 130.453 115.999 130.431 115.934C130.577 115.828 130.737 115.745 130.906 115.688C131.356 115.506 131.82 115.362 132.293 115.256C133.868 114.907 135.506 114.965 137.052 115.425C138.598 115.886 140.001 116.734 141.128 117.888C141.468 118.235 141.777 118.611 142.05 119.013C142.158 119.153 142.247 119.307 142.312 119.472Z" fill="#263238"/>
<path id="Vector_81" d="M93.8549 157.79C87.7506 157.79 79.2931 155.677 68.7061 151.505C60.871 148.415 54.7176 145.281 54.6521 145.254L55.6458 143.304C55.8861 143.43 79.8991 155.606 93.8658 155.606C99.3804 155.606 103.65 152.941 106.549 147.689C107.93 145.134 108.873 142.365 109.339 139.499C109.487 138.625 112.779 118.986 113.909 113.744C114.499 111.014 116.093 106.526 117.6 102.191C118.998 98.2213 120.44 94.1208 120.729 92.3627C121.324 88.7973 120.893 81.0059 120.893 80.9294L123.077 80.8039C123.077 81.1369 123.525 88.9174 122.891 92.7176C122.569 94.6559 121.16 98.6635 119.67 102.9C118.179 107.137 116.612 111.593 116.05 114.192C114.958 119.384 111.54 139.603 111.507 139.81C111.474 140.018 109.028 157.79 93.8549 157.79Z" fill="#EDA61A"/>
<g id="Group_4" opacity="0.4">
<path id="Vector_82" d="M93.8549 157.79C87.7506 157.79 79.2931 155.677 68.7061 151.505C60.871 148.415 54.7176 145.281 54.6521 145.254L55.6458 143.304C55.8861 143.43 79.8991 155.606 93.8658 155.606C99.3804 155.606 103.65 152.941 106.549 147.689C107.93 145.134 108.873 142.365 109.339 139.499C109.487 138.625 112.779 118.986 113.909 113.744C114.499 111.014 116.093 106.526 117.6 102.191C118.998 98.2213 120.44 94.1208 120.729 92.3627C121.324 88.7973 120.893 81.0059 120.893 80.9294L123.077 80.8039C123.077 81.1369 123.525 88.9174 122.891 92.7176C122.569 94.6559 121.16 98.6635 119.67 102.9C118.179 107.137 116.612 111.593 116.05 114.192C114.958 119.384 111.54 139.603 111.507 139.81C111.474 140.018 109.028 157.79 93.8549 157.79Z" fill="black"/>
</g>
<path id="Vector_83" d="M120.516 81.6119C119.155 81.6302 117.841 81.1124 116.858 80.1705C113.096 76.4413 109.088 60.9513 108.919 60.2961L109.973 60.0231C110.016 60.1814 114.079 75.8571 117.617 79.3952C118.095 79.8432 118.672 80.1728 119.3 80.3577C119.929 80.5426 120.592 80.5776 121.237 80.4599C123.017 80.1814 124.606 78.9256 125.605 77.0146C128.509 71.4181 136.426 33.2036 136.525 32.8159L137.617 33.0398C137.289 34.6177 129.591 71.8058 126.615 77.5169C125.463 79.7392 123.579 81.2079 121.455 81.541C121.145 81.5911 120.83 81.6149 120.516 81.6119Z" fill="#F2F3F3"/>
<path id="Vector_84" d="M136.088 35.9609C136.164 34.4266 135.793 33.1817 135.542 31.6693C135.433 31.0305 135.635 29.944 136.17 29.5727C136.705 29.2014 137.524 29.6546 137.753 30.2825C137.944 31.017 137.979 31.7831 137.857 32.532C137.611 34.3447 137.098 34.8743 136.803 35.9609" fill="#F2F3F3"/>
<path id="Vector_85" d="M121.057 81.9177H120.718C119.517 81.8691 118.351 81.499 117.341 80.8459C116.332 80.1928 115.516 79.2808 114.98 78.2049C113.598 75.4749 111.796 71.7949 111.059 69.7801L113.107 69.0321C113.653 70.5227 115.012 73.4329 116.929 77.2221C117.292 77.9528 117.845 78.5725 118.53 79.0162C119.215 79.46 120.006 79.7116 120.822 79.7446C121.623 79.7915 122.422 79.6215 123.135 79.2525C123.848 78.8836 124.449 78.3293 124.873 77.648L124.933 77.5497C124.977 77.4678 125.168 77.0037 125.84 75.0818L125.916 74.8634C126.309 73.7714 127.134 71.2926 128.236 67.2194L130.344 67.7654C129.225 71.9314 128.378 74.4648 127.969 75.6005L127.898 75.808C127.068 78.1667 126.921 78.4943 126.806 78.6745L126.719 78.8164C126.116 79.772 125.28 80.5582 124.29 81.1009C123.299 81.6435 122.186 81.9247 121.057 81.9177Z" fill="#EDA61A"/>
<g id="Group_5" opacity="0.4">
<path id="Vector_86" d="M121.057 81.9177H120.718C119.517 81.8691 118.351 81.499 117.341 80.8459C116.332 80.1928 115.516 79.2808 114.98 78.2049C113.598 75.4749 111.796 71.7949 111.059 69.7801L113.107 69.0321C113.653 70.5227 115.012 73.4329 116.929 77.2221C117.292 77.9528 117.845 78.5725 118.53 79.0162C119.215 79.46 120.006 79.7116 120.822 79.7446C121.623 79.7915 122.422 79.6215 123.135 79.2525C123.848 78.8836 124.449 78.3293 124.873 77.648L124.933 77.5497C124.977 77.4678 125.168 77.0037 125.84 75.0818L125.916 74.8634C126.309 73.7714 127.134 71.2926 128.236 67.2194L130.344 67.7654C129.225 71.9314 128.378 74.4648 127.969 75.6005L127.898 75.808C127.068 78.1667 126.921 78.4943 126.806 78.6745L126.719 78.8164C126.116 79.772 125.28 80.5582 124.29 81.1009C123.299 81.6435 122.186 81.9247 121.057 81.9177Z" fill="black"/>
</g>
<path id="Vector_87" d="M51.2176 147.585C54.1366 147.585 56.5029 145.219 56.5029 142.3C56.5029 139.381 54.1366 137.015 51.2176 137.015C48.2987 137.015 45.9324 139.381 45.9324 142.3C45.9324 145.219 48.2987 147.585 51.2176 147.585Z" fill="#F2F3F3"/>
<path id="Vector_88" d="M51.5126 145.614C53.1741 145.614 54.5211 144.267 54.5211 142.606C54.5211 140.944 53.1741 139.597 51.5126 139.597C49.8511 139.597 48.5042 140.944 48.5042 142.606C48.5042 144.267 49.8511 145.614 51.5126 145.614Z" fill="#263238"/>
<path id="Vector_89" d="M47.887 147.585C47.887 147.585 46.7295 144.855 47.887 143.861C49.0445 142.868 61.1548 139.597 61.1548 139.597C61.1548 139.597 69.6943 137.129 70.6061 137.015C71.5179 136.9 82.6181 137.642 82.6181 137.642C82.6181 137.642 88.9189 135.906 89.8307 135.906C90.7426 135.906 89.4158 141.705 89.252 143.616C89.0882 145.527 87.8433 146.668 89.0008 147.585C90.1583 148.502 93.2378 151.085 93.2378 151.085C93.2378 151.085 89.9945 151.986 87.7778 151.74C86.4609 151.6 85.1726 151.264 83.9558 150.741C83.9558 150.741 79.3967 154.143 76.9069 154.639C74.4172 155.136 66.1343 157.872 64.4745 157.626C62.8146 157.38 61.5752 155.136 61.5752 155.136C61.5752 155.136 57.6768 155.715 56.9288 154.143C56.4965 153.242 56.1633 152.298 55.935 151.325L57.513 150.326C57.513 150.326 55.4382 150.91 54.5264 149.414C54.0053 148.617 53.666 147.715 53.5327 146.772C53.5327 146.772 49.2739 147.995 47.887 147.585Z" fill="#455A64"/>
<path id="Vector_90" d="M110.115 97.7189C110.113 97.8263 110.096 97.9328 110.066 98.0356C110.018 98.2686 109.953 98.5689 109.869 98.9365C109.782 99.3242 109.673 99.7992 109.574 100.356C109.476 100.913 109.334 101.546 109.247 102.256C109.159 102.966 109.023 103.73 108.946 104.566C108.87 105.401 108.793 106.291 108.728 107.23C108.517 111.316 108.831 115.411 109.662 119.417C109.869 120.34 110.055 121.213 110.284 122.021C110.513 122.829 110.721 123.578 110.934 124.26C111.147 124.943 111.365 125.549 111.551 126.084C111.736 126.619 111.906 127.072 112.059 127.443C112.211 127.814 112.304 128.077 112.386 128.3C112.434 128.399 112.467 128.504 112.484 128.612C112.427 128.519 112.378 128.423 112.337 128.322L111.955 127.487C111.791 127.121 111.594 126.673 111.409 126.138C111.223 125.603 110.967 125.008 110.754 124.32C110.541 123.632 110.279 122.895 110.066 122.081C109.853 121.268 109.634 120.394 109.421 119.472C108.997 117.461 108.7 115.426 108.531 113.378C108.386 111.328 108.368 109.271 108.477 107.219C108.548 106.275 108.602 105.374 108.722 104.538C108.843 103.703 108.935 102.928 109.056 102.223C109.176 101.519 109.318 100.88 109.432 100.323C109.547 99.7664 109.667 99.2969 109.776 98.9092L110.022 98.0192C110.039 97.9155 110.071 97.8145 110.115 97.7189Z" fill="#263238"/>
</g>
</svg>
