<svg width="20" height="18" viewBox="0 0 20 18" fill="none" xmlns="http://www.w3.org/2000/svg">
<g id="Alarm">
<rect width="19.5" height="18" transform="translate(0.166748)" fill="#154962"/>
<path id="Union" fill-rule="evenodd" clip-rule="evenodd" d="M5.26859 2.66394C5.55704 2.39767 5.55704 1.96597 5.26859 1.6997C4.98013 1.43343 4.51245 1.43343 4.224 1.6997L2.00809 3.74515C1.71963 4.01142 1.71963 4.44312 2.00809 4.70939C2.29655 4.97566 2.76422 4.97566 3.05268 4.70939L5.26859 2.66394ZM15.6095 1.6997C15.321 1.43343 14.8534 1.43343 14.5649 1.6997C14.2765 1.96597 14.2765 2.39767 14.5649 2.66394L16.7808 4.70939C17.0693 4.97566 17.537 4.97566 17.8254 4.70939C18.1139 4.44312 18.1139 4.01142 17.8254 3.74515L15.6095 1.6997ZM9.91674 4.22727C6.65323 4.22727 4.00764 6.66936 4.00764 9.68182C4.00764 12.6943 6.65323 15.1364 9.91674 15.1364C13.1802 15.1364 15.8258 12.6943 15.8258 9.68182C15.8258 6.66936 13.1802 4.22727 9.91674 4.22727ZM2.53037 9.68182C2.53037 5.91624 5.83736 2.86364 9.91674 2.86364C13.9961 2.86364 17.3031 5.91624 17.3031 9.68182C17.3031 13.4474 13.9961 16.5 9.91674 16.5C5.83736 16.5 2.53037 13.4474 2.53037 9.68182ZM9.91676 5.59091C10.3247 5.59091 10.6554 5.89617 10.6554 6.27273V9.31705L12.5423 10.4781C12.8818 10.687 12.9735 11.1103 12.7473 11.4236C12.521 11.7369 12.0624 11.8216 11.723 11.6128L9.83579 10.4517C9.63353 10.3271 9.46742 10.1582 9.35275 9.96028C9.23809 9.7624 9.17811 9.54145 9.17812 9.31705V6.27273C9.17812 5.89617 9.50882 5.59091 9.91676 5.59091Z" fill="#F2F3F3"/>
</g>
</svg>
