<svg width="20" height="18" viewBox="0 0 20 18" fill="none" xmlns="http://www.w3.org/2000/svg">
<g id="Battery">
<rect width="19.5" height="18" transform="translate(0.166748)" fill="#154962"/>
<path id="Vector (Stroke)" fill-rule="evenodd" clip-rule="evenodd" d="M2.50568 4.40901C2.9628 3.98705 3.58278 3.75 4.22925 3.75H13.9792C14.6257 3.75 15.2457 3.98705 15.7028 4.40901C16.1599 4.83097 16.4167 5.40326 16.4167 6V6.12868C16.7563 6.2395 17.0683 6.41946 17.3278 6.65901C17.7849 7.08097 18.0417 7.65326 18.0417 8.25V9.75C18.0417 10.3467 17.7849 10.919 17.3278 11.341C17.0683 11.5805 16.7563 11.7605 16.4167 11.8713V12C16.4167 12.5967 16.1599 13.169 15.7028 13.591C15.2457 14.0129 14.6257 14.25 13.9792 14.25H4.22925C3.58278 14.25 2.96279 14.0129 2.50568 13.591C2.04856 13.169 1.79175 12.5967 1.79175 12V6C1.79175 5.40326 2.04856 4.83097 2.50568 4.40901ZM4.22925 5.25C4.01376 5.25 3.8071 5.32902 3.65472 5.46967C3.50235 5.61032 3.41675 5.80109 3.41675 6V12C3.41675 12.1989 3.50235 12.3897 3.65472 12.5303C3.8071 12.671 4.01376 12.75 4.22925 12.75H13.9792C14.1947 12.75 14.4014 12.671 14.5538 12.5303C14.7061 12.3897 14.7917 12.1989 14.7917 12V11.25C14.7917 10.8358 15.1555 10.5 15.6042 10.5C15.8197 10.5 16.0264 10.421 16.1788 10.2803C16.3311 10.1397 16.4167 9.94891 16.4167 9.75V8.25C16.4167 8.05109 16.3311 7.86032 16.1788 7.71967C16.0264 7.57902 15.8197 7.5 15.6042 7.5C15.1555 7.5 14.7917 7.16421 14.7917 6.75V6C14.7917 5.80109 14.7061 5.61032 14.5538 5.46967C14.4014 5.32902 14.1947 5.25 13.9792 5.25H4.22925ZM5.85425 6.75C6.30298 6.75 6.66675 7.08579 6.66675 7.5V10.5C6.66675 10.9142 6.30298 11.25 5.85425 11.25C5.40552 11.25 5.04175 10.9142 5.04175 10.5V7.5C5.04175 7.08579 5.40552 6.75 5.85425 6.75ZM9.10425 6.75C9.55298 6.75 9.91675 7.08579 9.91675 7.5V10.5C9.91675 10.9142 9.55298 11.25 9.10425 11.25C8.65552 11.25 8.29175 10.9142 8.29175 10.5V7.5C8.29175 7.08579 8.65552 6.75 9.10425 6.75ZM12.3542 6.75C12.803 6.75 13.1667 7.08579 13.1667 7.5V10.5C13.1667 10.9142 12.803 11.25 12.3542 11.25C11.9055 11.25 11.5417 10.9142 11.5417 10.5V7.5C11.5417 7.08579 11.9055 6.75 12.3542 6.75Z" fill="#F2F3F3"/>
</g>
</svg>
