<svg width="21" height="18" viewBox="0 0 21 18" fill="none" xmlns="http://www.w3.org/2000/svg">
<g id="Bluetooth">
<rect width="19.5" height="18" transform="translate(0.916748)" fill="#154962"/>
<path id="Vector (Stroke)" fill-rule="evenodd" clip-rule="evenodd" d="M10.3406 2.06944C10.5876 1.95803 10.8832 1.98207 11.1042 2.13155L15.7917 5.30269C15.9781 5.42879 16.0864 5.62765 16.0833 5.83781C16.0801 6.04796 15.9658 6.24409 15.7756 6.36557L11.6525 9L15.7756 11.6344C15.9658 11.7559 16.0801 11.952 16.0833 12.1622C16.0864 12.3723 15.9781 12.5712 15.7917 12.6973L11.1042 15.8685C10.8832 16.0179 10.5876 16.042 10.3406 15.9306C10.0936 15.8191 9.93753 15.5914 9.93753 15.3423V10.0957L6.40069 12.3555C6.07207 12.5655 5.61698 12.4954 5.38421 12.199C5.15144 11.9025 5.22914 11.492 5.55775 11.2821L9.12947 9L5.55775 6.71792C5.22914 6.50796 5.15144 6.09746 5.38421 5.80104C5.61698 5.50462 6.07207 5.43453 6.40069 5.6445L9.93753 7.90429V2.65772C9.93753 2.4086 10.0936 2.18085 10.3406 2.06944ZM11.3959 10.4481L14.1164 12.1863L11.3959 14.0268V10.4481ZM11.3959 7.55194V3.97316L14.1164 5.81367L11.3959 7.55194Z" fill="#F2F3F3"/>
</g>
</svg>
