<svg width="20" height="18" viewBox="0 0 20 18" fill="none" xmlns="http://www.w3.org/2000/svg">
<g id="Signal">
<rect width="19.5" height="18" transform="translate(0.416748)" fill="#154962"/>
<path id="Union" fill-rule="evenodd" clip-rule="evenodd" d="M16.5585 4.0001C16.5585 3.50304 16.122 3.1001 15.5835 3.1001C15.045 3.1001 14.6085 3.50304 14.6085 4.0001V14.0001C14.6085 14.4972 15.045 14.9001 15.5835 14.9001C16.122 14.9001 16.5585 14.4972 16.5585 14.0001V4.0001ZM9.29993 9.2999C9.29993 8.80285 8.86341 8.3999 8.32493 8.3999C7.78646 8.3999 7.34993 8.80285 7.34993 9.2999V13.9999C7.34993 14.497 7.78646 14.8999 8.32493 14.8999C8.86341 14.8999 9.29993 14.497 9.29993 13.9999V9.2999ZM4.75015 11.1001C5.28862 11.1001 5.72515 11.503 5.72515 12.0001V14.0001C5.72515 14.4972 5.28862 14.9001 4.75015 14.9001C4.21167 14.9001 3.77515 14.4972 3.77515 14.0001V12.0001C3.77515 11.503 4.21167 11.1001 4.75015 11.1001ZM12.9834 6.70005C12.9834 6.20299 12.5469 5.80005 12.0084 5.80005C11.4699 5.80005 11.0334 6.20299 11.0334 6.70005V14C11.0334 14.4971 11.4699 14.9 12.0084 14.9C12.5469 14.9 12.9834 14.4971 12.9834 14V6.70005Z" fill="#F2F3F3"/>
</g>
</svg>
