<svg width="51" height="10" viewBox="0 0 51 10" fill="none" xmlns="http://www.w3.org/2000/svg">
<g id="Time">
<g id="5:13 PM">
<path d="M4.25169 10C3.88866 10 3.52058 9.94991 3.14747 9.84973C2.77435 9.74954 2.4214 9.59927 2.08862 9.39891C1.76593 9.18944 1.47853 8.92532 1.22642 8.60656C0.974317 8.2878 0.787759 7.90984 0.666748 7.47268L2.17938 6.92623C2.31048 7.40893 2.54746 7.8051 2.89032 8.11475C3.24327 8.4153 3.69201 8.56557 4.23656 8.56557C4.50884 8.56557 4.76598 8.52459 5.008 8.44262C5.25003 8.35155 5.45675 8.23315 5.62818 8.08743C5.79962 7.9326 5.93575 7.75045 6.03659 7.54098C6.13744 7.33151 6.18786 7.09927 6.18786 6.84426C6.18786 6.58925 6.13744 6.35701 6.03659 6.14754C5.94584 5.92896 5.81474 5.74226 5.64331 5.58743C5.47188 5.4326 5.26515 5.31421 5.02313 5.23224C4.78111 5.14117 4.51892 5.09563 4.23656 5.09563C3.90378 5.09563 3.60126 5.16393 3.32898 5.30055C3.05671 5.42805 2.82981 5.59654 2.6483 5.80601L0.984401 5.13661L1.60458 0.437158H7.2467V1.81694H3.01133L2.63317 4.24863L2.72393 4.27596C2.94578 4.12113 3.20293 3.98907 3.49537 3.87978C3.78781 3.77049 4.1458 3.71585 4.56934 3.71585C5.00296 3.71585 5.41642 3.79326 5.8097 3.94809C6.21307 4.09381 6.56602 4.30328 6.86854 4.5765C7.17107 4.84973 7.41309 5.1776 7.59461 5.56011C7.77612 5.94262 7.86688 6.36612 7.86688 6.8306C7.86688 7.28597 7.77612 7.70947 7.59461 8.10109C7.41309 8.48361 7.16099 8.81603 6.83829 9.09836C6.5156 9.38069 6.1324 9.60382 5.68869 9.76776C5.25507 9.92259 4.77607 10 4.25169 10Z" fill="#F2F3F3"/>
<path d="M10.4906 9.86339C10.1679 9.86339 9.89058 9.76321 9.65864 9.56284C9.43679 9.35337 9.32586 9.10291 9.32586 8.81147C9.32586 8.52004 9.43679 8.26958 9.65864 8.06011C9.89058 7.85064 10.1679 7.7459 10.4906 7.7459C10.8133 7.7459 11.0906 7.85064 11.3225 8.06011C11.5545 8.26958 11.6704 8.52004 11.6704 8.81147C11.6704 9.10291 11.5545 9.35337 11.3225 9.56284C11.0906 9.76321 10.8133 9.86339 10.4906 9.86339ZM10.4906 5.06831C10.1679 5.06831 9.89058 4.96812 9.65864 4.76776C9.43679 4.55829 9.32586 4.30783 9.32586 4.01639C9.32586 3.72495 9.43679 3.47905 9.65864 3.27869C9.89058 3.06922 10.1679 2.96448 10.4906 2.96448C10.8133 2.96448 11.0906 3.06922 11.3225 3.27869C11.5545 3.47905 11.6704 3.72495 11.6704 4.01639C11.6704 4.30783 11.5545 4.55829 11.3225 4.76776C11.0906 4.96812 10.8133 5.06831 10.4906 5.06831Z" fill="#F2F3F3"/>
<path d="M15.5576 9.78142V2.26776L13.6365 3.01913L13.0012 1.72131L16.0416 0.437158H17.2366V9.78142H15.5576Z" fill="#F2F3F3"/>
<path d="M22.5958 10C22.2328 10 21.8697 9.95446 21.5067 9.86339C21.1437 9.77231 20.8008 9.63115 20.4781 9.43989C20.1655 9.23953 19.8831 8.98907 19.631 8.68853C19.3789 8.38798 19.1873 8.02823 19.0562 7.60929L20.6294 7.02186C20.7705 7.51366 21.0126 7.89162 21.3554 8.15574C21.6983 8.41985 22.1117 8.55191 22.5958 8.55191C22.8378 8.55191 23.0697 8.51548 23.2916 8.44262C23.5235 8.36976 23.7252 8.26958 23.8967 8.14208C24.0681 8.00546 24.2042 7.85064 24.3051 7.6776C24.4059 7.49545 24.4563 7.29508 24.4563 7.0765C24.4563 6.85792 24.4009 6.65756 24.2899 6.47541C24.1891 6.29326 24.0479 6.13843 23.8664 6.01093C23.6849 5.88342 23.4681 5.78324 23.216 5.71038C22.9739 5.63752 22.7118 5.60109 22.4294 5.60109H21.5369V4.19399H22.3386C22.5807 4.19399 22.8025 4.16667 23.0042 4.11202C23.216 4.04827 23.4025 3.96175 23.5639 3.85246C23.7252 3.74317 23.8513 3.60656 23.942 3.44262C24.0328 3.26958 24.0782 3.07377 24.0782 2.85519C24.0782 2.48178 23.9269 2.19035 23.6244 1.98087C23.3319 1.76229 22.9588 1.65301 22.505 1.65301C22.2529 1.65301 22.0311 1.68488 21.8395 1.74863C21.658 1.81239 21.5017 1.89891 21.3706 2.0082C21.2395 2.11749 21.1285 2.24044 21.0378 2.37705C20.9571 2.50455 20.8916 2.63661 20.8411 2.77322L19.2982 2.18579C19.3789 1.96721 19.505 1.74408 19.6764 1.51639C19.8478 1.2796 20.0646 1.06557 20.3268 0.874317C20.589 0.68306 20.8966 0.528233 21.2495 0.409836C21.6126 0.282331 22.0311 0.218579 22.505 0.218579C22.9891 0.218579 23.4328 0.282331 23.8361 0.409836C24.2395 0.53734 24.5874 0.714936 24.8799 0.942623C25.1723 1.17031 25.3992 1.43898 25.5605 1.74863C25.7219 2.05829 25.8026 2.39526 25.8026 2.75956C25.8026 3.02368 25.7622 3.26503 25.6816 3.48361C25.611 3.70219 25.5101 3.898 25.379 4.07104C25.2479 4.23497 25.1017 4.37614 24.9404 4.49454C24.779 4.61293 24.6126 4.71311 24.4412 4.79508V4.87705C24.6731 4.96812 24.895 5.08652 25.1068 5.23224C25.3185 5.36885 25.5 5.53279 25.6513 5.72404C25.8127 5.9153 25.9387 6.13388 26.0295 6.37978C26.1202 6.61658 26.1656 6.87614 26.1656 7.15847C26.1656 7.56831 26.0748 7.95082 25.8933 8.30601C25.7118 8.65209 25.4597 8.95264 25.137 9.20765C24.8244 9.45355 24.4513 9.64481 24.0177 9.78142C23.584 9.92714 23.1101 10 22.5958 10Z" fill="#F2F3F3"/>
<path d="M31.1819 9.78142V0H34.9332C35.4172 0 35.871 0.0728595 36.2946 0.218579C36.7282 0.364299 37.1063 0.569216 37.429 0.833333C37.7517 1.09745 38.0038 1.41621 38.1854 1.78962C38.377 2.15392 38.4728 2.5592 38.4728 3.00546C38.4728 3.44262 38.377 3.84791 38.1854 4.22131C38.0038 4.58561 37.7517 4.89982 37.429 5.16393C37.1063 5.42805 36.7282 5.63297 36.2946 5.77869C35.871 5.92441 35.4172 5.99727 34.9332 5.99727H32.8911V9.78142H31.1819ZM34.9786 4.52186C35.2609 4.52186 35.513 4.48087 35.7349 4.39891C35.9567 4.30783 36.1433 4.18944 36.2946 4.04372C36.4458 3.898 36.5618 3.73406 36.6425 3.55191C36.7231 3.36976 36.7635 3.18761 36.7635 3.00546C36.7635 2.81421 36.7231 2.6275 36.6425 2.44536C36.5618 2.26321 36.4458 2.10382 36.2946 1.96721C36.1433 1.82149 35.9567 1.7031 35.7349 1.61202C35.513 1.52095 35.2609 1.47541 34.9786 1.47541H32.8911V4.52186H34.9786Z" fill="#F2F3F3"/>
<path d="M39.9268 0H41.6361L45.1756 5.56011H45.2664L48.8059 0H50.5001V9.78142H48.8059V4.46721L48.8967 2.82787H48.8059L45.7202 7.70492H44.7067L41.6361 2.82787H41.5453L41.6361 4.46721V9.78142H39.9268V0Z" fill="#F2F3F3"/>
</g>
</g>
</svg>
