<svg width="21" height="18" viewBox="0 0 21 18" fill="none" xmlns="http://www.w3.org/2000/svg">
<g id="Wifi">
<rect width="19.5" height="18" transform="translate(0.666748)" fill="#154962"/>
<path id="Union" fill-rule="evenodd" clip-rule="evenodd" d="M6.59718 5.23251C7.77613 4.78041 9.04045 4.54842 10.3171 4.54996L10.3182 4.54996C13.0035 4.54996 15.4322 5.55631 17.1888 7.18469C17.5266 7.49778 18.0753 7.49885 18.4145 7.18709C18.7537 6.87534 18.7548 6.3688 18.4171 6.05572C16.3486 4.13823 13.4833 2.9501 10.3188 2.94996L10.3193 2.94996L10.3182 3.74996V2.94996L10.3188 2.94996C8.81334 2.94822 7.32244 3.22181 5.9322 3.75494C4.54177 4.28814 3.27959 5.07037 2.21856 6.05644C1.88126 6.36992 1.88312 6.87645 2.22272 7.18781C2.56232 7.49917 3.11106 7.49745 3.44836 7.18397C4.34802 6.34787 5.41823 5.68461 6.59718 5.23251ZM7.78657 8.02621C8.58647 7.71099 9.44739 7.54896 10.3171 7.54996H10.3193C11.189 7.54896 12.05 7.71099 12.8499 8.02621C13.6498 8.34144 14.372 8.80331 14.9728 9.38383C15.3034 9.7033 15.852 9.71487 16.1981 9.40967C16.5442 9.10446 16.5568 8.59806 16.2261 8.27859C15.4632 7.54146 14.5461 6.95498 13.5304 6.55471C12.5151 6.15456 11.4223 5.94883 10.3182 5.94996L10.3193 5.94996L10.3182 6.74996L10.3171 5.94996L10.3182 5.94996C9.21418 5.94883 8.12138 6.15456 7.106 6.55471C6.09028 6.95498 5.17319 7.54146 4.4103 8.27859C4.07967 8.59806 4.0922 9.10446 4.43829 9.40967C4.78439 9.71487 5.33299 9.7033 5.66363 9.38383C6.26443 8.80331 6.98666 8.34144 7.78657 8.02621ZM8.99851 10.8122C9.41277 10.6389 9.86242 10.5495 10.3172 10.55L10.3182 10.55C11.2761 10.55 12.135 10.9383 12.7218 11.5556C13.0374 11.8877 13.585 11.9207 13.9448 11.6293C14.3046 11.3379 14.3404 10.8325 14.0247 10.5003C13.123 9.55176 11.7965 8.95009 10.3187 8.94996L10.3192 8.94996L10.3182 9.74996V8.94996H10.3187C9.61662 8.9493 8.92251 9.08736 8.28302 9.35488C7.64339 9.62245 7.07323 10.0133 6.61089 10.5013C6.29575 10.8338 6.33235 11.3392 6.69262 11.6301C7.05289 11.921 7.60041 11.8872 7.91554 11.5547C8.21498 11.2387 8.58425 10.9855 8.99851 10.8122ZM11.5002 13.2C11.5002 13.7522 11.0152 14.2 10.4168 14.2C9.81854 14.2 9.33352 13.7522 9.33352 13.2C9.33352 12.6477 9.81854 12.2 10.4168 12.2C11.0152 12.2 11.5002 12.6477 11.5002 13.2Z" fill="#F2F3F3"/>
</g>
</svg>
